<?xml version="1.0" encoding="UTF-8" standalone="no"?>
<!DOCTYPE svg PUBLIC "-//W3C//DTD SVG 1.1//EN" "http://www.w3.org/Graphics/SVG/1.1/DTD/svg11.dtd">
<svg xmlns="http://www.w3.org/2000/svg" version="1.1" viewBox="0.00 0.00 515.00 485.00">
<g stroke-width="2.00" fill="none" stroke-linecap="butt">
<path stroke="#8a6e93" vector-effect="non-scaling-stroke" d="
  M 146.17 372.21
  Q 146.01 372.80 146.75 373.32"
/>
<path stroke="#462c50" vector-effect="non-scaling-stroke" d="
  M 146.75 373.32
  C 152.91 379.53 159.54 380.43 167.32 382.02
  A 0.32 0.31 80.6 0 0 167.65 381.55
  Q 162.73 373.26 159.91 363.87
  Q 159.74 363.30 159.82 363.07
  A 0.95 0.82 31.2 0 1 161.24 362.83
  Q 162.00 363.44 162.95 363.80
  Q 163.60 364.04 163.78 363.38
  Q 164.46 361.01 165.74 361.17"
/>
<path stroke="#6e2d73" vector-effect="non-scaling-stroke" d="
  M 165.74 361.17
  Q 167.91 365.74 170.96 369.76
  C 175.17 375.31 176.18 380.15 183.71 382.08
  A 0.56 0.56 0.0 0 0 184.41 381.48
  Q 183.88 376.12 180.63 371.89
  Q 178.84 369.56 181.52 370.78
  Q 186.94 373.24 193.46 376.32
  C 195.87 377.45 197.74 376.72 197.78 380.51
  C 197.93 394.19 184.20 400.17 172.78 394.97
  Q 170.98 394.15 172.28 395.63
  C 180.68 405.19 194.19 403.21 204.23 397.93
  C 209.78 395.01 215.58 390.82 217.98 385.25
  C 223.36 372.76 214.79 363.54 207.72 354.68"
/>
<path stroke="#462c50" vector-effect="non-scaling-stroke" d="
  M 207.72 354.68
  Q 214.44 352.16 219.96 346.69
  C 231.48 335.29 235.28 320.15 231.13 304.39
  C 229.97 300.00 227.87 295.54 225.82 291.28
  Q 224.03 287.56 220.89 284.95
  Q 220.51 284.64 220.03 284.59
  Q 216.55 284.19 215.25 284.27
  C 213.39 284.39 210.82 283.31 208.92 282.89
  A 1.78 1.76 71.9 0 1 208.14 282.49
  Q 207.44 281.86 206.52 281.86
  Q 206.04 281.85 205.94 281.39
  Q 205.86 281.03 205.50 280.97
  Q 204.97 280.87 205.22 281.34
  Q 209.46 289.36 213.86 297.43
  C 219.53 307.84 220.76 317.95 219.35 329.73
  C 218.90 333.56 217.41 336.84 215.81 340.28
  Q 215.76 340.40 215.67 340.46
  Q 215.54 340.54 215.39 340.59
  Q 215.11 340.68 215.12 340.38
  L 215.12 339.26
  A 1.80 1.77 -32.4 0 1 215.28 338.57
  C 219.68 329.29 218.76 318.39 215.98 308.75
  C 214.58 303.92 211.79 299.14 209.34 294.51
  C 207.80 291.61 204.97 288.08 203.66 284.53
  C 201.10 277.65 198.78 269.72 198.30 262.30
  Q 197.87 255.67 198.38 249.01
  Q 198.52 247.20 197.64 248.79
  Q 196.35 251.15 195.70 254.85
  C 193.69 266.20 195.20 277.27 198.37 288.24
  Q 198.45 288.54 198.14 288.52
  L 197.71 288.51
  A 0.23 0.21 -8.2 0 1 197.52 288.38
  C 190.45 272.68 191.70 255.37 196.20 239.18
  A 0.68 0.68 0.0 0 0 195.63 238.33
  Q 195.34 238.29 194.86 238.60
  C 190.28 241.45 185.13 244.34 181.26 247.46
  Q 172.62 254.41 166.60 263.87
  A 0.57 0.57 0.0 0 0 166.92 264.72
  Q 167.01 264.74 167.33 264.72
  Q 167.52 264.70 167.69 264.58
  Q 171.17 262.13 173.70 258.77
  Q 173.87 258.56 174.08 258.73
  L 174.30 258.91
  A 0.53 0.53 0.0 0 1 174.38 259.66
  C 170.12 265.04 169.22 270.37 163.60 274.58
  Q 162.34 275.52 161.99 277.19
  Q 161.88 277.67 162.10 278.12
  Q 163.09 280.18 162.53 282.52
  Q 161.52 286.74 161.21 290.47"
/>
<path stroke="#443c52" vector-effect="non-scaling-stroke" d="
  M 121.55 221.02
  Q 126.16 219.74 130.23 217.30
  C 134.08 214.99 137.88 215.19 141.70 213.23
  Q 144.28 211.91 145.26 211.79
  C 150.03 211.22 154.19 209.10 159.01 208.70
  Q 159.49 208.66 159.92 208.43
  Q 160.25 208.25 160.87 208.11
  C 179.33 203.80 193.79 201.49 213.48 199.30
  C 226.53 197.84 240.30 196.89 252.46 192.81
  Q 253.90 192.33 252.49 192.14
  Q 252.14 192.09 251.25 192.13
  Q 224.76 193.38 198.43 196.48
  C 184.16 198.15 170.80 200.69 158.02 204.68
  Q 152.93 206.27 148.80 205.42"
/>
<path stroke="#462c50" vector-effect="non-scaling-stroke" d="
  M 193.89 181.61
  L 195.20 181.82
  Q 195.70 181.90 196.08 181.56
  C 204.97 173.72 214.67 170.42 225.86 167.15"
/>
<path stroke="#64417a" vector-effect="non-scaling-stroke" d="
  M 225.86 167.15
  L 242.57 164.11
  A 0.33 0.32 -12.7 0 0 242.83 163.70
  Q 240.94 157.03 242.41 150.23
  A 0.64 0.64 0.0 0 0 241.68 149.46
  C 239.76 149.76 238.48 149.80 237.51 151.69
  Q 234.62 157.36 235.19 163.53
  A 0.40 0.40 0.0 0 1 234.73 163.96
  L 234.40 163.91
  A 0.62 0.62 0.0 0 1 233.87 163.36
  Q 233.10 156.93 236.68 151.63
  Q 238.00 149.68 235.70 150.21
  L 224.77 152.76"
/>
<path stroke="#462c50" vector-effect="non-scaling-stroke" d="
  M 224.77 152.76
  L 209.91 156.91"
/>
<path stroke="#462c50" vector-effect="non-scaling-stroke" d="
  M 214.22 144.63
  Q 222.28 139.09 230.01 133.81
  C 230.63 133.39 231.11 132.70 231.53 132.19
  Q 233.33 130.04 230.71 131.03
  Q 223.70 133.67 215.98 138.15"
/>
<path stroke="#462c50" vector-effect="non-scaling-stroke" d="
  M 307.42 157.25
  Q 297.86 153.41 288.27 152.36"
/>
<path stroke="#64417a" vector-effect="non-scaling-stroke" d="
  M 288.27 152.36
  L 272.96 148.98
  A 0.87 0.87 0.0 0 0 272.00 150.24
  Q 275.55 156.87 271.95 163.53
  A 0.80 0.79 -71.3 0 0 272.52 164.70
  L 285.24 166.70"
/>
<path stroke="#462c50" vector-effect="non-scaling-stroke" d="
  M 285.24 166.70
  Q 289.08 167.54 293.25 168.41
  C 299.32 169.66 308.01 172.63 312.03 174.88
  C 313.73 175.83 315.76 178.16 318.26 179.10
  Q 319.58 179.59 320.82 180.16"
/>
<path stroke="#462c50" vector-effect="non-scaling-stroke" d="
  M 354.95 293.34
  Q 355.02 291.80 354.38 290.32
  C 352.62 286.30 351.60 280.81 348.78 277.49
  C 345.52 273.68 343.05 268.72 341.32 264.32
  Q 339.85 260.58 343.18 262.82
  L 346.20 264.84
  A 0.59 0.59 0.0 0 0 347.12 264.42
  Q 347.20 263.64 346.74 262.81
  Q 340.39 251.49 330.25 243.58
  C 327.31 241.29 323.62 239.56 320.22 237.62
  Q 319.79 237.38 319.64 237.49
  A 0.93 0.92 -23.9 0 0 319.28 238.41
  Q 320.56 244.99 321.39 251.53
  Q 323.14 265.38 319.27 278.76
  Q 318.43 281.67 314.23 291.39
  A 0.49 0.48 21.4 0 1 313.62 291.65
  L 313.34 291.55
  Q 313.12 291.47 313.21 291.26
  Q 320.91 273.62 318.97 254.37
  Q 318.92 253.85 318.41 254.01
  Q 317.35 254.34 317.24 255.50
  C 316.48 264.10 315.63 272.57 312.84 280.27
  C 310.20 287.55 305.10 295.33 302.85 300.60
  C 297.90 312.23 294.62 329.49 301.61 340.70
  C 302.69 342.44 303.17 344.50 301.77 345.99
  Q 300.35 347.51 300.42 345.43
  Q 300.43 345.12 300.72 344.42
  A 1.29 1.28 48.7 0 0 300.77 343.58
  C 299.64 339.50 297.61 336.47 296.63 331.79
  Q 296.03 328.90 295.89 326.16
  Q 295.27 314.38 298.87 303.06
  Q 300.39 298.30 302.99 293.61
  Q 303.54 292.63 302.48 292.27
  Q 300.92 291.74 299.08 292.13
  Q 297.17 292.55 295.85 292.43
  Q 293.20 292.19 290.54 292.25
  Q 290.13 292.25 289.86 292.55
  Q 289.08 293.42 288.16 293.14
  Q 287.69 292.99 287.48 293.44
  Q 282.49 304.37 281.77 309.49
  Q 279.15 328.05 290.37 341.71
  C 293.86 345.95 299.08 349.43 303.77 352.77
  C 304.67 353.41 306.18 353.44 306.36 355.12"
/>
<path stroke="#6e2d73" vector-effect="non-scaling-stroke" d="
  M 306.36 355.12
  C 294.84 364.72 287.64 379.80 301.40 391.85
  Q 305.87 395.77 309.47 397.60
  C 316.12 400.96 330.12 404.40 337.95 400.23
  Q 341.22 398.49 343.55 396.76
  Q 346.34 394.70 343.14 396.05
  C 336.67 398.78 326.49 396.29 322.06 390.22
  Q 317.83 384.44 317.86 378.01"
/>
<path stroke="#462c50" vector-effect="non-scaling-stroke" d="
  M 317.86 378.01
  L 332.90 371.48
  Q 333.40 371.26 333.13 371.73
  C 332.19 373.39 327.67 381.20 331.49 381.86
  A 1.67 1.64 -59.0 0 0 332.84 381.51
  Q 341.29 374.57 345.71 365.21
  Q 346.13 364.33 345.82 361.41
  Q 345.74 360.63 346.52 360.62
  L 346.81 360.62
  Q 347.08 360.62 347.16 360.88
  Q 347.55 362.29 347.35 363.73
  Q 347.25 364.44 347.94 364.22
  Q 349.03 363.86 349.20 363.18"
/>
<path stroke="#6e2d73" vector-effect="non-scaling-stroke" d="
  M 349.20 363.18
  Q 350.40 361.92 350.38 361.57"
/>
<path stroke="#462c50" vector-effect="non-scaling-stroke" d="
  M 350.38 361.57
  Q 350.92 361.32 351.09 360.65
  Q 351.21 360.18 351.65 360.41
  L 353.82 361.54
  Q 354.30 361.79 354.38 362.33
  C 355.42 369.61 350.61 375.12 347.23 380.81
  A 1.54 1.41 87.6 0 1 346.91 381.19
  Q 346.41 381.61 346.04 382.08
  Q 345.50 382.77 346.37 382.65
  Q 359.55 380.85 369.96 373.75"
/>
<path stroke="#883792" vector-effect="non-scaling-stroke" d="
  M 207.72 354.68
  Q 201.09 346.28 190.27 342.73
  Q 188.41 342.12 187.23 340.70
  Q 186.92 340.34 186.51 340.11
  Q 185.03 339.30 184.81 337.59
  Q 184.75 337.07 184.24 336.90
  C 182.15 336.20 180.06 337.33 178.58 337.59
  Q 167.32 339.54 165.22 351.27
  Q 164.55 355.05 165.74 361.17"
/>
<path stroke="#a578b1" vector-effect="non-scaling-stroke" d="
  M 146.75 373.32
  Q 148.16 374.05 148.93 374.09
  A 0.65 0.65 0.0 0 0 149.50 373.07
  Q 147.97 370.88 146.08 370.11"
/>
<path stroke="#883792" vector-effect="non-scaling-stroke" d="
  M 350.38 361.57
  C 351.30 355.97 352.48 350.28 348.43 345.56
  Q 343.51 339.82 336.76 336.28
  Q 336.26 336.02 335.89 336.45
  C 335.05 337.43 334.77 338.06 333.58 338.64
  Q 324.54 343.08 315.50 347.50
  Q 311.01 349.69 306.36 355.12"
/>
<path stroke="#7e4b98" vector-effect="non-scaling-stroke" d="
  M 225.86 167.15
  L 224.77 152.76"
/>
<path stroke="#883792" vector-effect="non-scaling-stroke" d="
  M 349.20 363.18
  L 346.51 359.11
  A 0.49 0.49 0.0 0 0 345.66 359.16
  Q 345.30 359.91 344.60 360.35
  Q 343.78 360.87 343.75 360.87
  Q 343.43 360.89 343.39 361.19
  Q 343.33 361.61 342.97 361.86
  Q 341.62 362.79 340.55 363.97
  Q 337.99 366.77 338.08 362.98
  L 338.23 356.47
  Q 338.26 355.36 337.54 356.20
  Q 332.37 362.24 325.33 366.63
  C 321.15 369.23 317.65 372.59 317.86 378.01"
/>
<path stroke="#7e4b98" vector-effect="non-scaling-stroke" d="
  M 288.27 152.36
  Q 289.42 154.37 288.84 156.02
  Q 286.98 161.30 285.24 166.70"
/>
<path stroke="#443c52" vector-effect="non-scaling-stroke" d="
  M 286.40 137.67
  Q 288.21 139.25 290.30 140.51
  C 291.26 141.08 291.67 142.01 292.77 142.47
  Q 293.23 142.67 293.58 143.03
  Q 295.12 144.60 297.22 145.21
  A 0.75 0.74 23.0 0 0 298.07 144.87
  Q 298.55 144.01 297.57 143.17
  C 295.91 141.75 294.79 139.94 293.12 138.65
  C 289.84 136.09 286.92 132.99 283.48 131.01
  C 278.96 128.40 273.24 126.66 269.95 122.81
  Q 265.65 117.78 261.49 110.44
  C 256.09 100.92 257.62 89.20 257.78 79.20
  Q 257.85 75.44 256.56 78.98
  C 251.08 94.01 250.98 124.54 268.46 133.27
  Q 269.24 133.66 268.93 132.84
  L 266.83 127.33
  A 0.60 0.60 0.0 0 1 267.63 126.56
  C 271.85 128.37 281.27 131.11 283.29 134.74
  A 4.79 0.19 41.0 0 0 286.40 137.67"
/>
<path stroke="#8a6e93" vector-effect="non-scaling-stroke" d="
  M 255.94 143.17
  C 250.16 143.07 247.61 145.78 244.54 149.96
  C 240.89 154.96 243.28 165.24 248.24 168.90
  C 254.60 173.59 264.34 171.95 268.92 166.14
  C 275.85 157.34 270.22 145.68 260.01 143.12"
/>
<path stroke="#443c52" vector-effect="non-scaling-stroke" d="
  M 260.01 143.12
  Q 260.79 138.88 260.10 135.07
  C 259.53 131.98 257.32 129.31 255.60 126.68
  Q 254.78 125.42 254.85 126.92
  C 255.04 131.30 255.07 136.84 256.26 141.01
  Q 256.81 142.93 255.94 143.17"
/>
<path stroke="#a388b4" vector-effect="non-scaling-stroke" d="
  M 260.01 143.12
  L 255.94 143.17"
/>
<path stroke="#443c52" vector-effect="non-scaling-stroke" d="
  M 358.13 201.87
  Q 363.03 203.33 373.51 207.10
  Q 375.84 207.94 376.95 208.81
  Q 377.10 208.92 377.20 208.77
  L 377.21 208.77
  Q 377.31 208.61 377.15 208.52
  C 371.16 204.73 363.80 201.89 357.21 199.34
  Q 352.13 197.38 345.91 196.30
  C 329.84 193.52 315.19 190.96 297.75 190.12
  C 290.17 189.76 282.72 190.51 275.16 190.32
  Q 273.86 190.28 275.07 190.76
  Q 277.12 191.58 279.76 191.84
  Q 305.03 194.38 330.24 197.34
  Q 351.11 199.79 358.13 201.87"
/>
<path stroke="#64417a" vector-effect="non-scaling-stroke" d="
  M 246.08 221.33
  Q 246.03 221.40 245.52 221.14"
/>
<path stroke="#64417a" vector-effect="non-scaling-stroke" d="
  M 242.70 221.71
  Q 245.02 225.07 246.94 230.04
  Q 247.24 230.83 247.92 231.07"
/>
<path stroke="#64417a" vector-effect="non-scaling-stroke" d="
  M 245.30 232.85
  L 240.99 230.41"
/>
<path stroke="#64417a" vector-effect="non-scaling-stroke" d="
  M 237.02 237.67
  C 235.03 237.50 233.53 237.76 231.37 237.46
  Q 228.96 237.11 226.95 238.39"
/>
<path stroke="#64417a" vector-effect="non-scaling-stroke" d="
  M 282.58 238.23
  Q 280.55 237.41 277.92 237.65"
/>
<path stroke="#64417a" vector-effect="non-scaling-stroke" d="
  M 274.72 233.75
  Q 275.28 233.81 275.73 233.46"
/>
<path stroke="#443c52" vector-effect="non-scaling-stroke" d="
  M 283.97 227.77
  Q 283.34 227.15 282.50 227.44
  Q 280.90 227.99 280.00 228.11
  Q 278.82 228.27 278.82 228.96"
/>
<path stroke="#64417a" vector-effect="non-scaling-stroke" d="
  M 274.72 231.55
  L 268.78 232.63
  A 0.66 0.66 0.0 0 1 268.01 231.83
  C 268.59 229.30 268.91 226.75 270.65 224.67
  Q 271.73 223.37 272.96 221.99"
/>
<path stroke="#443c52" vector-effect="non-scaling-stroke" d="
  M 273.02 219.76
  Q 272.81 218.87 271.56 219.35
  Q 271.12 219.51 271.06 219.94"
/>
<path stroke="#462c50" vector-effect="non-scaling-stroke" d="
  M 320.19 230.73
  Q 317.89 229.68 316.17 227.83
  Q 310.96 222.26 305.94 216.54
  C 304.47 214.87 302.85 213.82 300.88 215.29
  Q 300.44 215.62 300.54 216.17
  L 301.41 221.03
  A 1.34 1.31 15.6 0 0 301.88 221.84
  Q 303.96 223.56 305.72 225.58
  C 309.69 230.12 315.77 233.32 321.34 235.87
  Q 331.38 240.46 338.77 249.09
  A 0.23 0.23 0.0 0 0 339.17 248.96
  C 339.34 246.98 336.80 242.52 335.79 240.75
  C 331.41 233.10 327.07 224.23 320.17 218.83
  Q 311.04 211.71 301.64 205.78
  Q 300.13 204.83 300.60 206.55
  C 301.33 209.28 302.57 211.62 304.78 213.72
  Q 309.82 218.50 314.34 223.76
  C 316.05 225.75 318.66 227.93 320.56 230.25
  A 0.31 0.31 0.0 0 1 320.19 230.73"
/>
<path stroke="#462c50" vector-effect="non-scaling-stroke" d="
  M 212.72 220.90
  C 213.94 218.04 213.05 214.52 214.69 211.96
  Q 216.64 208.94 213.32 210.38
  C 202.25 215.20 191.82 220.94 185.89 232.28
  Q 182.35 239.05 178.07 245.35
  Q 177.11 246.76 176.84 247.85
  Q 176.62 248.76 177.32 248.14
  Q 183.27 242.95 190.10 239.00
  Q 198.43 234.18 200.34 232.77
  C 204.08 230.02 210.89 225.21 212.72 220.90"
/>
<path stroke="#443c52" vector-effect="non-scaling-stroke" d="
  M 242.66 295.15
  Q 242.46 292.94 240.60 292.88"
/>
<path stroke="#462c50" vector-effect="non-scaling-stroke" d="
  M 256.82 406.37
  Q 256.54 407.92 257.06 409.22
  Q 257.66 410.71 257.75 409.10
  L 258.12 401.97"
/>
<path stroke="#64417a" vector-effect="non-scaling-stroke" d="
  M 279.00 289.73
  Q 280.18 288.80 279.89 287.80
  Q 279.71 287.18 279.24 287.62
  Q 278.62 288.20 278.52 289.26"
/>
<path stroke="#883792" vector-effect="non-scaling-stroke" d="
  M 384.54 125.55
  L 387.87 122.46
  Q 388.22 122.13 388.31 121.67
  Q 388.57 120.43 388.36 119.21
  A 1.66 1.66 0.0 0 0 385.77 118.14
  Q 384.72 118.87 384.42 120.51
  Q 384.05 122.64 382.80 122.98"
/>
<path stroke="#8a6e93" vector-effect="non-scaling-stroke" d="
  M 264.42 150.03
  Q 259.39 147.52 254.49 148.23
  C 247.15 149.28 244.24 158.81 250.02 163.75
  C 252.20 165.61 254.86 166.62 257.75 166.02
  C 260.30 165.49 262.52 165.74 264.35 163.76
  Q 267.30 160.59 267.45 155.36"
/>
<path stroke="#64417a" vector-effect="non-scaling-stroke" d="
  M 255.32 257.12
  Q 254.56 258.31 252.80 258.66"
/>
<path stroke="#64417a" vector-effect="non-scaling-stroke" d="
  M 259.16 260.48
  Q 258.62 259.11 259.01 257.10"
/>
<path stroke="#6e2d73" vector-effect="non-scaling-stroke" d="
  M 267.44 274.52
  L 249.42 274.70"
/>
<path stroke="#6e2d73" vector-effect="non-scaling-stroke" d="
  M 266.13 275.49
  Q 265.77 275.80 265.22 275.44"
/>
<path stroke="#462c50" vector-effect="non-scaling-stroke" d="
  M 322.19 298.19
  Q 321.74 299.61 320.59 300.58
  C 317.51 303.18 313.89 305.61 311.79 309.26
  C 306.41 318.61 308.19 333.23 316.05 340.89
  Q 316.47 341.30 316.75 340.78
  L 316.94 340.43
  Q 317.03 340.25 316.90 340.09
  C 307.60 328.64 308.22 311.60 320.29 302.32
  C 321.05 301.74 322.15 300.07 322.53 299.22
  C 326.41 290.63 329.61 283.76 330.08 273.50
  Q 330.62 261.85 328.15 250.45
  Q 328.14 250.37 328.05 250.38
  L 327.80 250.41
  A 0.28 0.27 85.6 0 0 327.56 250.70
  C 327.87 256.65 328.92 262.93 328.70 268.46
  C 328.26 279.50 325.34 288.36 322.19 298.19"
/>
<path stroke="#462c50" vector-effect="non-scaling-stroke" d="
  M 320.29 323.27
  C 321.25 327.47 322.15 330.99 325.41 333.41
  A 0.17 0.17 0.0 0 0 325.66 333.19
  Q 321.97 326.81 322.11 321.50
  Q 322.21 317.32 324.65 315.15
  Q 330.99 309.50 334.55 305.05
  C 336.03 303.19 337.32 302.02 339.12 300.81
  A 0.97 0.96 -30.8 0 1 340.52 301.16
  Q 341.79 303.60 341.31 306.39
  Q 341.13 307.49 341.76 306.57
  C 343.94 303.38 343.59 297.57 343.92 293.78
  C 344.58 286.01 342.09 280.83 340.56 273.91
  Q 339.85 270.67 339.86 273.99
  C 339.89 280.47 340.75 288.44 337.33 294.57
  Q 332.23 303.73 324.56 310.26
  Q 318.49 315.44 320.29 323.27"
/>
<path stroke="#462c50" vector-effect="non-scaling-stroke" d="
  M 201.85 338.43
  Q 207.89 328.99 207.79 319.00
  C 207.73 312.52 205.51 308.30 201.50 303.21
  Q 201.20 302.83 201.18 302.34
  Q 201.16 301.98 201.06 301.68
  Q 200.71 300.70 200.44 301.71
  L 200.28 302.28
  Q 200.09 302.97 199.41 302.74
  C 187.80 298.78 186.08 275.60 185.14 265.90
  Q 185.13 265.81 185.04 265.81
  L 184.73 265.82
  Q 184.47 265.82 184.45 266.08
  C 183.51 278.78 186.49 294.46 197.25 302.77
  C 208.81 311.68 207.73 325.86 200.93 337.40
  Q 200.60 337.96 201.10 338.36
  L 201.30 338.52
  Q 201.62 338.77 201.85 338.43"
/>
<path stroke="#462c50" vector-effect="non-scaling-stroke" d="
  M 186.29 337.71
  L 186.48 337.90
  A 0.36 0.35 44.4 0 0 186.99 337.90
  Q 188.01 336.85 189.14 335.87
  Q 196.53 329.48 196.09 319.92
  C 195.98 317.51 195.03 314.42 193.47 312.78
  C 186.53 305.54 179.63 300.08 177.35 289.66
  Q 175.82 282.63 175.36 269.45
  Q 175.35 269.38 175.27 269.37
  Q 175.23 269.37 175.19 269.37
  Q 175.04 269.35 175.01 269.49
  Q 173.72 274.66 172.31 279.78
  C 170.88 284.99 172.30 291.70 174.31 296.57
  C 176.80 302.58 182.56 308.01 187.43 312.73
  Q 192.27 317.43 193.25 319.90
  C 196.02 326.87 191.99 332.20 186.30 337.58
  Q 186.23 337.64 186.29 337.71"
/>
<path stroke="#6e2d73" vector-effect="non-scaling-stroke" d="
  M 300.10 374.78
  Q 300.29 373.33 300.32 371.79
  Q 300.33 371.29 299.93 371.59
  Q 299.51 371.90 299.39 372.51
  C 298.91 374.93 298.02 377.63 298.04 379.86
  Q 298.09 384.83 301.29 388.86
  A 0.49 0.49 0.0 0 0 302.02 388.90
  L 302.25 388.67
  A 0.33 0.33 0.0 0 0 302.27 388.23
  C 299.41 384.74 299.57 378.98 300.10 374.78"
/>
<path stroke="#883792" vector-effect="non-scaling-stroke" d="
  M 213.91 386.96
  A 0.50 0.50 0.0 0 0 214.14 387.55
  Q 214.69 387.86 215.13 387.08
  C 217.88 382.28 216.84 378.15 215.68 373.10
  Q 215.63 372.89 215.42 372.93
  L 215.41 372.93
  Q 215.18 372.97 215.22 373.25
  Q 216.14 380.28 213.91 386.96"
/>
<path stroke="#883792" vector-effect="non-scaling-stroke" d="
  M 207.49 390.79
  L 208.61 390.98
  A 0.18 0.18 0.0 0 0 208.82 390.83
  L 209.00 389.71
  A 10.35 0.63 -80.8 0 0 210.03 379.39
  L 209.79 379.36
  A 10.35 0.63 -80.8 0 0 207.52 389.47
  L 207.34 390.59
  A 0.18 0.18 0.0 0 0 207.49 390.79"
/>
</g>
<path fill="#2b2231" d="
  M 175.11 425.52
  C 162.53 418.75 150.77 412.16 139.56 403.21
  C 124.44 391.13 110.76 377.62 99.22 362.01
  Q 90.87 350.70 86.17 342.56
  C 68.91 312.67 58.31 278.09 57.79 243.49
  C 57.44 220.42 58.58 198.13 65.69 176.09
  Q 69.38 164.61 73.81 153.40
  Q 81.83 133.06 94.39 115.15
  C 102.07 104.20 110.62 93.27 119.87 83.98
  Q 153.76 49.94 199.70 34.07
  C 213.44 29.32 226.41 27.27 239.99 24.68
  C 246.23 23.49 253.70 20.07 257.87 14.68
  Q 258.23 14.22 258.61 14.66
  C 265.91 23.03 278.40 25.48 289.83 27.30
  C 322.60 32.52 352.14 44.63 378.53 64.50
  C 383.24 68.04 388.49 72.81 393.47 77.04
  C 432.97 110.63 457.98 162.87 460.79 214.66
  Q 462.19 240.43 459.51 261.01
  C 457.16 279.00 450.63 299.14 443.05 317.94
  C 436.49 334.19 427.90 348.62 417.44 363.45
  Q 411.17 372.35 406.37 377.37
  C 399.96 384.08 393.34 391.12 386.56 396.87
  Q 346.45 430.91 294.48 442.07
  C 281.29 444.90 262.41 453.89 257.65 467.76
  A 0.43 0.43 0.0 0 1 256.84 467.78
  C 253.43 459.36 248.06 453.63 239.73 449.24
  Q 229.24 443.72 217.70 440.96
  C 203.50 437.56 188.00 432.45 175.11 425.52
  Z
  M 146.17 372.21
  Q 146.01 372.80 146.75 373.32
  C 152.91 379.53 159.54 380.43 167.32 382.02
  A 0.32 0.31 80.6 0 0 167.65 381.55
  Q 162.73 373.26 159.91 363.87
  Q 159.74 363.30 159.82 363.07
  A 0.95 0.82 31.2 0 1 161.24 362.83
  Q 162.00 363.44 162.95 363.80
  Q 163.60 364.04 163.78 363.38
  Q 164.46 361.01 165.74 361.17
  Q 167.91 365.74 170.96 369.76
  C 175.17 375.31 176.18 380.15 183.71 382.08
  A 0.56 0.56 0.0 0 0 184.41 381.48
  Q 183.88 376.12 180.63 371.89
  Q 178.84 369.56 181.52 370.78
  Q 186.94 373.24 193.46 376.32
  C 195.87 377.45 197.74 376.72 197.78 380.51
  C 197.93 394.19 184.20 400.17 172.78 394.97
  Q 170.98 394.15 172.28 395.63
  C 180.68 405.19 194.19 403.21 204.23 397.93
  C 209.78 395.01 215.58 390.82 217.98 385.25
  C 223.36 372.76 214.79 363.54 207.72 354.68
  Q 214.44 352.16 219.96 346.69
  C 231.48 335.29 235.28 320.15 231.13 304.39
  C 229.97 300.00 227.87 295.54 225.82 291.28
  Q 224.03 287.56 220.89 284.95
  Q 220.51 284.64 220.03 284.59
  Q 216.55 284.19 215.25 284.27
  C 213.39 284.39 210.82 283.31 208.92 282.89
  A 1.78 1.76 71.9 0 1 208.14 282.49
  Q 207.44 281.86 206.52 281.86
  Q 206.04 281.85 205.94 281.39
  Q 205.86 281.03 205.50 280.97
  Q 204.97 280.87 205.22 281.34
  Q 209.46 289.36 213.86 297.43
  C 219.53 307.84 220.76 317.95 219.35 329.73
  C 218.90 333.56 217.41 336.84 215.81 340.28
  Q 215.76 340.40 215.67 340.46
  Q 215.54 340.54 215.39 340.59
  Q 215.11 340.68 215.12 340.38
  L 215.12 339.26
  A 1.80 1.77 -32.4 0 1 215.28 338.57
  C 219.68 329.29 218.76 318.39 215.98 308.75
  C 214.58 303.92 211.79 299.14 209.34 294.51
  C 207.80 291.61 204.97 288.08 203.66 284.53
  C 201.10 277.65 198.78 269.72 198.30 262.30
  Q 197.87 255.67 198.38 249.01
  Q 198.52 247.20 197.64 248.79
  Q 196.35 251.15 195.70 254.85
  C 193.69 266.20 195.20 277.27 198.37 288.24
  Q 198.45 288.54 198.14 288.52
  L 197.71 288.51
  A 0.23 0.21 -8.2 0 1 197.52 288.38
  C 190.45 272.68 191.70 255.37 196.20 239.18
  A 0.68 0.68 0.0 0 0 195.63 238.33
  Q 195.34 238.29 194.86 238.60
  C 190.28 241.45 185.13 244.34 181.26 247.46
  Q 172.62 254.41 166.60 263.87
  A 0.57 0.57 0.0 0 0 166.92 264.72
  Q 167.01 264.74 167.33 264.72
  Q 167.52 264.70 167.69 264.58
  Q 171.17 262.13 173.70 258.77
  Q 173.87 258.56 174.08 258.73
  L 174.30 258.91
  A 0.53 0.53 0.0 0 1 174.38 259.66
  C 170.12 265.04 169.22 270.37 163.60 274.58
  Q 162.34 275.52 161.99 277.19
  Q 161.88 277.67 162.10 278.12
  Q 163.09 280.18 162.53 282.52
  Q 161.52 286.74 161.21 290.47
  Q 154.58 301.64 157.89 314.01
  Q 157.99 314.38 157.62 314.26
  Q 157.47 314.21 157.38 314.02
  C 150.04 298.62 154.19 284.51 160.30 269.68
  Q 160.50 269.20 159.99 269.08
  C 145.37 265.59 114.62 252.37 115.33 233.27
  Q 115.61 225.85 121.55 221.02
  Q 126.16 219.74 130.23 217.30
  C 134.08 214.99 137.88 215.19 141.70 213.23
  Q 144.28 211.91 145.26 211.79
  C 150.03 211.22 154.19 209.10 159.01 208.70
  Q 159.49 208.66 159.92 208.43
  Q 160.25 208.25 160.87 208.11
  C 179.33 203.80 193.79 201.49 213.48 199.30
  C 226.53 197.84 240.30 196.89 252.46 192.81
  Q 253.90 192.33 252.49 192.14
  Q 252.14 192.09 251.25 192.13
  Q 224.76 193.38 198.43 196.48
  C 184.16 198.15 170.80 200.69 158.02 204.68
  Q 152.93 206.27 148.80 205.42
  C 164.21 197.45 180.22 191.16 196.09 184.17
  Q 198.34 183.18 195.93 182.71
  Q 195.73 182.68 194.51 182.54
  Q 194.02 182.49 193.89 181.61
  L 195.20 181.82
  Q 195.70 181.90 196.08 181.56
  C 204.97 173.72 214.67 170.42 225.86 167.15
  L 242.57 164.11
  A 0.33 0.32 -12.7 0 0 242.83 163.70
  Q 240.94 157.03 242.41 150.23
  A 0.64 0.64 0.0 0 0 241.68 149.46
  C 239.76 149.76 238.48 149.80 237.51 151.69
  Q 234.62 157.36 235.19 163.53
  A 0.40 0.40 0.0 0 1 234.73 163.96
  L 234.40 163.91
  A 0.62 0.62 0.0 0 1 233.87 163.36
  Q 233.10 156.93 236.68 151.63
  Q 238.00 149.68 235.70 150.21
  L 224.77 152.76
  L 209.91 156.91
  Q 211.51 149.78 214.22 144.63
  Q 222.28 139.09 230.01 133.81
  C 230.63 133.39 231.11 132.70 231.53 132.19
  Q 233.33 130.04 230.71 131.03
  Q 223.70 133.67 215.98 138.15
  Q 218.21 131.99 219.59 125.88
  C 221.56 117.24 227.74 114.39 233.48 108.87
  Q 233.64 108.72 233.48 108.56
  L 233.27 108.35
  Q 233.17 108.25 233.13 108.29
  Q 230.25 110.70 227.33 113.12
  Q 226.43 113.87 225.50 113.80
  A 0.81 0.81 0.0 0 1 224.75 112.95
  C 225.20 105.43 227.45 98.03 229.59 90.84
  Q 230.32 88.37 231.13 87.40
  Q 240.82 75.86 248.45 62.88
  C 251.56 57.60 257.92 52.62 264.00 51.19
  Q 281.09 47.16 298.72 44.68
  A 1.62 1.62 0.0 0 1 300.37 45.50
  Q 309.96 63.06 320.45 80.58
  C 322.13 83.39 323.57 86.64 325.17 89.53
  Q 326.26 91.48 324.72 89.86
  C 323.96 89.06 322.94 87.93 321.88 87.26
  Q 300.28 73.68 294.65 69.87
  Q 293.67 69.21 292.60 67.20
  Q 292.31 66.67 292.00 67.18
  Q 289.05 72.07 285.16 76.26
  Q 284.82 76.62 284.72 77.11
  Q 283.27 84.34 282.87 91.73
  Q 282.77 93.62 281.50 92.22
  Q 275.74 85.87 272.83 77.78
  Q 272.73 77.49 272.46 77.36
  Q 272.34 77.30 272.21 77.26
  L 271.88 70.88
  Q 271.88 70.86 271.88 70.86
  Q 271.88 70.86 271.88 70.86
  A 0.01 0.00 40.3 0 0 271.87 70.86
  L 272.21 77.26
  C 274.02 86.09 276.97 92.30 282.16 100.11
  Q 285.18 104.67 284.26 109.83
  Q 284.06 110.98 283.17 110.22
  Q 277.98 105.77 273.42 101.34
  Q 272.87 100.81 272.78 100.78
  Q 271.37 100.39 272.18 101.61
  Q 277.08 109.07 283.12 115.09
  C 290.90 122.86 295.01 132.87 299.93 143.26
  C 301.94 147.49 305.39 152.13 307.42 157.25
  Q 297.86 153.41 288.27 152.36
  L 272.96 148.98
  A 0.87 0.87 0.0 0 0 272.00 150.24
  Q 275.55 156.87 271.95 163.53
  A 0.80 0.79 -71.3 0 0 272.52 164.70
  L 285.24 166.70
  Q 289.08 167.54 293.25 168.41
  C 299.32 169.66 308.01 172.63 312.03 174.88
  C 313.73 175.83 315.76 178.16 318.26 179.10
  Q 319.58 179.59 320.82 180.16
  Q 320.67 181.16 321.78 181.48
  Q 347.99 189.01 370.22 198.78
  C 380.14 203.13 395.29 212.94 397.29 224.54
  C 400.90 245.48 368.41 260.27 353.12 266.00
  Q 351.59 266.57 352.36 268.01
  C 359.90 282.16 363.90 296.64 358.59 312.54
  A 0.39 0.39 0.0 0 1 358.12 312.80
  L 357.86 312.73
  Q 357.74 312.70 357.77 312.58
  C 359.46 305.65 357.97 299.61 354.95 293.34
  Q 355.02 291.80 354.38 290.32
  C 352.62 286.30 351.60 280.81 348.78 277.49
  C 345.52 273.68 343.05 268.72 341.32 264.32
  Q 339.85 260.58 343.18 262.82
  L 346.20 264.84
  A 0.59 0.59 0.0 0 0 347.12 264.42
  Q 347.20 263.64 346.74 262.81
  Q 340.39 251.49 330.25 243.58
  C 327.31 241.29 323.62 239.56 320.22 237.62
  Q 319.79 237.38 319.64 237.49
  A 0.93 0.92 -23.9 0 0 319.28 238.41
  Q 320.56 244.99 321.39 251.53
  Q 323.14 265.38 319.27 278.76
  Q 318.43 281.67 314.23 291.39
  A 0.49 0.48 21.4 0 1 313.62 291.65
  L 313.34 291.55
  Q 313.12 291.47 313.21 291.26
  Q 320.91 273.62 318.97 254.37
  Q 318.92 253.85 318.41 254.01
  Q 317.35 254.34 317.24 255.50
  C 316.48 264.10 315.63 272.57 312.84 280.27
  C 310.20 287.55 305.10 295.33 302.85 300.60
  C 297.90 312.23 294.62 329.49 301.61 340.70
  C 302.69 342.44 303.17 344.50 301.77 345.99
  Q 300.35 347.51 300.42 345.43
  Q 300.43 345.12 300.72 344.42
  A 1.29 1.28 48.7 0 0 300.77 343.58
  C 299.64 339.50 297.61 336.47 296.63 331.79
  Q 296.03 328.90 295.89 326.16
  Q 295.27 314.38 298.87 303.06
  Q 300.39 298.30 302.99 293.61
  Q 303.54 292.63 302.48 292.27
  Q 300.92 291.74 299.08 292.13
  Q 297.17 292.55 295.85 292.43
  Q 293.20 292.19 290.54 292.25
  Q 290.13 292.25 289.86 292.55
  Q 289.08 293.42 288.16 293.14
  Q 287.69 292.99 287.48 293.44
  Q 282.49 304.37 281.77 309.49
  Q 279.15 328.05 290.37 341.71
  C 293.86 345.95 299.08 349.43 303.77 352.77
  C 304.67 353.41 306.18 353.44 306.36 355.12
  C 294.84 364.72 287.64 379.80 301.40 391.85
  Q 305.87 395.77 309.47 397.60
  C 316.12 400.96 330.12 404.40 337.95 400.23
  Q 341.22 398.49 343.55 396.76
  Q 346.34 394.70 343.14 396.05
  C 336.67 398.78 326.49 396.29 322.06 390.22
  Q 317.83 384.44 317.86 378.01
  L 332.90 371.48
  Q 333.40 371.26 333.13 371.73
  C 332.19 373.39 327.67 381.20 331.49 381.86
  A 1.67 1.64 -59.0 0 0 332.84 381.51
  Q 341.29 374.57 345.71 365.21
  Q 346.13 364.33 345.82 361.41
  Q 345.74 360.63 346.52 360.62
  L 346.81 360.62
  Q 347.08 360.62 347.16 360.88
  Q 347.55 362.29 347.35 363.73
  Q 347.25 364.44 347.94 364.22
  Q 349.03 363.86 349.20 363.18
  Q 350.40 361.92 350.38 361.57
  Q 350.92 361.32 351.09 360.65
  Q 351.21 360.18 351.65 360.41
  L 353.82 361.54
  Q 354.30 361.79 354.38 362.33
  C 355.42 369.61 350.61 375.12 347.23 380.81
  A 1.54 1.41 87.6 0 1 346.91 381.19
  Q 346.41 381.61 346.04 382.08
  Q 345.50 382.77 346.37 382.65
  Q 359.55 380.85 369.96 373.75
  Q 373.89 371.38 376.45 368.48
  Q 379.29 365.25 381.10 361.36
  Q 381.17 361.20 381.33 361.26
  L 381.34 361.26
  Q 381.50 361.33 381.45 361.49
  Q 379.25 369.12 377.05 376.76
  C 375.00 383.89 371.79 387.76 365.86 392.35
  C 361.26 395.90 356.62 399.69 351.85 402.65
  Q 332.23 414.84 310.25 422.20
  C 303.93 424.32 297.24 426.39 291.33 429.51
  Q 288.29 431.12 291.68 430.56
  C 326.35 424.81 360.76 405.79 385.20 380.70
  C 399.27 366.26 410.92 352.89 420.42 335.12
  C 431.17 315.00 439.78 295.37 444.12 273.10
  C 449.21 246.98 450.01 220.77 445.58 194.43
  C 440.80 166.03 427.75 138.61 410.98 114.75
  C 402.68 102.93 392.73 93.35 381.94 83.89
  C 361.19 65.68 337.72 52.67 311.00 45.19
  Q 306.69 43.98 296.75 42.40
  C 283.76 40.34 270.61 36.32 258.75 30.66
  Q 258.28 30.43 257.81 30.65
  C 241.98 38.12 223.99 39.64 207.08 45.12
  C 137.45 67.70 85.96 127.57 73.09 199.37
  C 67.88 228.44 69.79 257.84 76.94 286.35
  C 87.90 330.02 113.94 366.93 148.51 394.96
  Q 156.12 401.13 164.82 406.52
  C 183.84 418.31 203.85 426.67 225.57 431.24
  Q 226.90 431.52 225.82 430.69
  C 218.52 425.15 209.23 423.77 201.27 420.53
  C 196.26 418.49 191.24 416.64 186.51 414.02
  C 173.45 406.79 158.94 400.20 148.29 389.05
  C 140.93 381.35 138.46 372.60 135.69 362.66
  Q 135.61 362.39 135.88 362.30
  L 136.16 362.20
  Q 136.33 362.14 136.39 362.31
  Q 139.16 369.21 145.78 372.36
  Q 146.03 372.48 146.17 372.21
  Z
  M 286.40 137.67
  Q 288.21 139.25 290.30 140.51
  C 291.26 141.08 291.67 142.01 292.77 142.47
  Q 293.23 142.67 293.58 143.03
  Q 295.12 144.60 297.22 145.21
  A 0.75 0.74 23.0 0 0 298.07 144.87
  Q 298.55 144.01 297.57 143.17
  C 295.91 141.75 294.79 139.94 293.12 138.65
  C 289.84 136.09 286.92 132.99 283.48 131.01
  C 278.96 128.40 273.24 126.66 269.95 122.81
  Q 265.65 117.78 261.49 110.44
  C 256.09 100.92 257.62 89.20 257.78 79.20
  Q 257.85 75.44 256.56 78.98
  C 251.08 94.01 250.98 124.54 268.46 133.27
  Q 269.24 133.66 268.93 132.84
  L 266.83 127.33
  A 0.60 0.60 0.0 0 1 267.63 126.56
  C 271.85 128.37 281.27 131.11 283.29 134.74
  A 4.79 0.19 41.0 0 0 286.40 137.67
  Z
  M 255.94 143.17
  C 250.16 143.07 247.61 145.78 244.54 149.96
  C 240.89 154.96 243.28 165.24 248.24 168.90
  C 254.60 173.59 264.34 171.95 268.92 166.14
  C 275.85 157.34 270.22 145.68 260.01 143.12
  Q 260.79 138.88 260.10 135.07
  C 259.53 131.98 257.32 129.31 255.60 126.68
  Q 254.78 125.42 254.85 126.92
  C 255.04 131.30 255.07 136.84 256.26 141.01
  Q 256.81 142.93 255.94 143.17
  Z
  M 358.13 201.87
  Q 363.03 203.33 373.51 207.10
  Q 375.84 207.94 376.95 208.81
  Q 377.10 208.92 377.20 208.77
  L 377.21 208.77
  Q 377.31 208.61 377.15 208.52
  C 371.16 204.73 363.80 201.89 357.21 199.34
  Q 352.13 197.38 345.91 196.30
  C 329.84 193.52 315.19 190.96 297.75 190.12
  C 290.17 189.76 282.72 190.51 275.16 190.32
  Q 273.86 190.28 275.07 190.76
  Q 277.12 191.58 279.76 191.84
  Q 305.03 194.38 330.24 197.34
  Q 351.11 199.79 358.13 201.87
  Z
  M 246.08 221.33
  Q 246.03 221.40 245.52 221.14
  Q 245.02 219.76 244.25 219.67
  C 237.80 218.90 233.78 215.75 228.89 212.37
  Q 227.56 211.45 225.92 211.03
  A 1.27 1.25 35.8 0 0 224.95 211.18
  Q 222.87 212.46 220.52 212.04
  Q 220.03 211.95 219.64 212.28
  C 217.11 214.45 216.44 219.98 215.68 223.21
  A 0.38 0.38 0.0 0 0 216.22 223.64
  C 222.80 220.41 229.95 217.06 237.41 219.69
  Q 240.07 220.62 242.70 221.71
  Q 245.02 225.07 246.94 230.04
  Q 247.24 230.83 247.92 231.07
  L 247.08 232.86
  Q 246.84 233.36 246.30 233.27
  Q 245.74 233.17 245.30 232.85
  L 240.99 230.41
  Q 240.63 229.38 239.71 229.29
  Q 239.15 229.23 238.71 229.58
  Q 238.57 229.69 238.33 229.64
  Q 237.87 229.55 237.62 229.15
  Q 236.85 227.90 235.55 227.98
  Q 235.00 228.02 234.58 228.37
  Q 234.22 228.67 234.03 229.11
  Q 233.77 229.68 233.39 229.19
  C 231.76 227.09 228.70 228.14 226.47 228.37
  A 0.87 0.87 0.0 0 0 226.00 229.90
  C 228.89 232.30 234.87 234.18 238.44 232.03
  Q 238.90 231.75 239.36 232.02
  L 240.33 232.59
  A 0.80 0.80 0.0 0 1 240.70 233.49
  Q 239.84 236.60 237.02 237.67
  C 235.03 237.50 233.53 237.76 231.37 237.46
  Q 228.96 237.11 226.95 238.39
  Q 225.34 235.89 222.87 234.50
  Q 222.43 234.26 222.19 233.81
  C 221.03 231.62 219.23 230.19 217.50 228.04
  Q 216.75 227.12 215.40 226.71
  Q 214.97 226.58 214.87 227.02
  C 211.96 239.82 214.76 252.99 220.35 263.64
  Q 224.23 271.03 227.02 273.72
  Q 236.45 282.80 245.79 291.99
  C 253.63 299.71 264.30 297.20 271.42 290.41
  C 278.84 283.35 287.92 275.59 293.01 267.31
  C 299.97 256.00 304.92 240.91 301.67 227.54
  A 1.05 1.05 0.0 0 0 300.02 226.95
  Q 297.75 228.66 295.14 230.38
  C 292.89 231.87 293.30 236.16 289.84 237.06
  Q 287.92 237.56 286.06 238.26
  Q 285.60 238.43 285.10 238.40
  L 282.58 238.23
  Q 280.55 237.41 277.92 237.65
  L 275.12 236.37
  Q 274.61 236.14 274.64 235.58
  L 274.72 233.75
  Q 275.28 233.81 275.73 233.46
  Q 281.45 232.56 285.32 232.66
  Q 288.81 232.75 290.45 229.97
  A 0.62 0.62 0.0 0 0 290.32 229.18
  Q 288.64 227.74 286.60 228.60
  A 1.11 1.09 -3.1 0 0 285.96 229.30
  Q 285.69 230.13 285.23 230.77
  Q 285.14 230.90 285.03 230.94
  Q 284.88 231.00 284.75 230.96
  Q 284.48 230.85 284.60 230.58
  Q 285.08 229.45 285.10 229.02
  Q 285.15 227.56 283.97 227.77
  Q 283.34 227.15 282.50 227.44
  Q 280.90 227.99 280.00 228.11
  Q 278.82 228.27 278.82 228.96
  C 277.49 229.99 274.60 228.98 274.72 231.55
  L 268.78 232.63
  A 0.66 0.66 0.0 0 1 268.01 231.83
  C 268.59 229.30 268.91 226.75 270.65 224.67
  Q 271.73 223.37 272.96 221.99
  Q 274.68 221.18 276.65 220.26
  C 283.59 217.03 293.26 220.88 299.69 223.43
  Q 300.61 223.79 300.30 222.85
  C 299.34 219.97 299.33 215.82 298.01 213.44
  C 295.42 208.75 288.08 210.18 284.33 212.83
  Q 282.46 214.15 278.12 217.70
  C 276.54 218.99 274.87 219.10 273.02 219.76
  Q 272.81 218.87 271.56 219.35
  Q 271.12 219.51 271.06 219.94
  C 267.17 220.79 265.79 216.37 269.49 215.20
  Q 277.79 212.58 285.44 208.40
  Q 289.26 206.31 293.10 208.08
  Q 293.24 208.14 293.33 208.10
  Q 293.43 208.05 293.51 207.90
  A 0.38 0.38 0.0 0 0 293.43 207.46
  C 288.04 202.30 280.51 200.28 273.07 197.66
  C 269.36 196.35 266.52 194.64 263.45 192.47
  A 2.01 2.00 -41.6 0 0 261.33 192.35
  C 254.30 196.21 245.17 198.56 239.41 201.14
  Q 232.70 204.15 226.26 207.77
  Q 225.67 208.11 226.34 208.25
  C 228.11 208.61 229.60 208.82 231.18 209.71
  C 236.47 212.71 241.16 214.93 247.08 216.03
  Q 247.59 216.13 247.64 216.65
  Q 247.86 218.99 246.08 221.33
  Z
  M 320.19 230.73
  Q 317.89 229.68 316.17 227.83
  Q 310.96 222.26 305.94 216.54
  C 304.47 214.87 302.85 213.82 300.88 215.29
  Q 300.44 215.62 300.54 216.17
  L 301.41 221.03
  A 1.34 1.31 15.6 0 0 301.88 221.84
  Q 303.96 223.56 305.72 225.58
  C 309.69 230.12 315.77 233.32 321.34 235.87
  Q 331.38 240.46 338.77 249.09
  A 0.23 0.23 0.0 0 0 339.17 248.96
  C 339.34 246.98 336.80 242.52 335.79 240.75
  C 331.41 233.10 327.07 224.23 320.17 218.83
  Q 311.04 211.71 301.64 205.78
  Q 300.13 204.83 300.60 206.55
  C 301.33 209.28 302.57 211.62 304.78 213.72
  Q 309.82 218.50 314.34 223.76
  C 316.05 225.75 318.66 227.93 320.56 230.25
  A 0.31 0.31 0.0 0 1 320.19 230.73
  Z
  M 212.72 220.90
  C 213.94 218.04 213.05 214.52 214.69 211.96
  Q 216.64 208.94 213.32 210.38
  C 202.25 215.20 191.82 220.94 185.89 232.28
  Q 182.35 239.05 178.07 245.35
  Q 177.11 246.76 176.84 247.85
  Q 176.62 248.76 177.32 248.14
  Q 183.27 242.95 190.10 239.00
  Q 198.43 234.18 200.34 232.77
  C 204.08 230.02 210.89 225.21 212.72 220.90
  Z
  M 278.52 289.26
  Q 278.25 289.22 278.04 289.25
  Q 277.84 289.27 277.67 289.48
  C 271.03 297.40 260.24 311.23 248.40 300.64
  C 246.40 298.86 244.71 296.92 242.66 295.15
  Q 242.46 292.94 240.60 292.88
  Q 239.33 290.69 237.65 290.05
  Q 236.62 289.66 236.67 290.77
  C 237.24 302.64 238.09 315.50 236.01 326.72
  Q 234.78 333.41 232.46 339.85
  Q 230.85 344.34 227.54 347.46
  A 0.96 0.95 -42.1 0 0 227.47 348.78
  C 236.69 359.35 244.80 369.40 250.80 383.27
  C 253.91 390.44 254.93 398.56 256.82 406.37
  Q 256.54 407.92 257.06 409.22
  Q 257.66 410.71 257.75 409.10
  L 258.12 401.97
  C 258.60 398.50 258.65 395.10 259.92 391.81
  Q 261.45 387.82 263.08 383.87
  C 268.65 370.33 277.98 359.65 287.70 348.97
  A 0.54 0.53 -44.6 0 0 287.71 348.27
  C 282.08 341.57 278.88 331.08 278.30 322.75
  C 277.72 314.46 277.37 301.08 279.19 290.49
  Q 279.26 290.11 279.00 289.73
  Q 280.18 288.80 279.89 287.80
  Q 279.71 287.18 279.24 287.62
  Q 278.62 288.20 278.52 289.26
  Z"
/>
<path fill="#5c5573" d="
  M 286.40 137.67
  A 4.79 0.19 41.0 0 1 283.29 134.74
  C 281.27 131.11 271.85 128.37 267.63 126.56
  A 0.60 0.60 0.0 0 0 266.83 127.33
  L 268.93 132.84
  Q 269.24 133.66 268.46 133.27
  C 250.98 124.54 251.08 94.01 256.56 78.98
  Q 257.85 75.44 257.78 79.20
  C 257.62 89.20 256.09 100.92 261.49 110.44
  Q 265.65 117.78 269.95 122.81
  C 273.24 126.66 278.96 128.40 283.48 131.01
  C 286.92 132.99 289.84 136.09 293.12 138.65
  C 294.79 139.94 295.91 141.75 297.57 143.17
  Q 298.55 144.01 298.07 144.87
  A 0.75 0.74 23.0 0 1 297.22 145.21
  Q 295.12 144.60 293.58 143.03
  Q 293.23 142.67 292.77 142.47
  C 291.67 142.01 291.26 141.08 290.30 140.51
  Q 288.21 139.25 286.40 137.67
  Z"
/>
<circle fill="#2b2231" cx="368.07" cy="91.83" r="1.89"/>
<path fill="#2b2231" d="
  M 163.67 107.85
  C 164.33 106.54 164.56 105.30 165.65 104.27
  Q 170.47 99.73 176.48 96.92
  Q 176.66 96.84 176.75 97.00
  L 176.76 97.01
  Q 176.86 97.18 176.70 97.29
  C 174.15 99.04 172.46 103.18 170.91 105.83
  Q 169.83 107.70 170.90 111.41
  Q 171.10 112.12 170.39 112.30
  Q 166.61 113.27 162.44 113.64
  C 157.47 114.10 152.86 112.40 147.95 113.83
  Q 145.88 114.44 147.51 113.02
  Q 152.08 109.04 157.79 106.99
  A 1.77 1.76 57.0 0 1 159.61 107.38
  Q 160.99 108.72 162.88 108.43
  A 1.09 1.09 0.0 0 0 163.67 107.85
  Z"
/>
<path fill="#60366e" d="
  M 384.54 125.55
  L 387.87 122.46
  Q 388.22 122.13 388.31 121.67
  Q 388.57 120.43 388.36 119.21
  A 1.66 1.66 0.0 0 0 385.77 118.14
  Q 384.72 118.87 384.42 120.51
  Q 384.05 122.64 382.80 122.98
  L 376.05 119.52
  Q 375.53 119.25 376.08 119.04
  C 378.77 118.01 381.88 117.29 383.43 114.69
  Q 385.64 111.01 386.42 107.12
  A 0.31 0.31 0.0 0 1 387.01 107.06
  C 389.19 112.23 390.26 116.83 396.35 118.80
  Q 397.79 119.27 399.25 118.81
  Q 399.45 118.75 399.51 118.96
  L 399.51 118.97
  Q 399.58 119.17 399.37 119.25
  Q 394.81 121.02 391.55 123.56
  C 389.69 125.01 388.22 129.00 387.19 130.95
  Q 386.51 132.23 386.10 130.84
  L 384.54 125.55
  Z"
/>
<ellipse fill="#2b2231" cx="0.00" cy="0.00" transform="translate(127.06,115.88) rotate(-11.1)" rx="1.51" ry="1.30"/>
<path fill="#b037b5" d="
  M 384.54 125.55
  L 382.80 122.98
  Q 384.05 122.64 384.42 120.51
  Q 384.72 118.87 385.77 118.14
  A 1.66 1.66 0.0 0 1 388.36 119.21
  Q 388.57 120.43 388.31 121.67
  Q 388.22 122.13 387.87 122.46
  L 384.54 125.55
  Z"
/>
<path fill="#5c5573" d="
  M 260.01 143.12
  L 255.94 143.17
  Q 256.81 142.93 256.26 141.01
  C 255.07 136.84 255.04 131.30 254.85 126.92
  Q 254.78 125.42 255.60 126.68
  C 257.32 129.31 259.53 131.98 260.10 135.07
  Q 260.79 138.88 260.01 143.12
  Z"
/>
<path fill="#60366e" d="
  M 138.99 176.68
  C 137.20 164.51 134.57 159.27 122.36 155.58
  Q 121.64 155.36 122.34 155.07
  C 124.99 154.00 128.31 153.09 130.45 151.63
  C 137.34 146.88 138.43 138.85 139.55 131.20
  Q 140.00 128.10 140.44 131.20
  C 141.32 137.41 142.59 146.49 147.94 150.83
  C 150.65 153.04 154.97 154.27 158.46 155.09
  Q 159.43 155.32 158.45 155.49
  C 146.88 157.50 141.72 165.59 140.26 176.67
  Q 139.66 181.24 138.99 176.68
  Z
  M 142.31 154.58
  L 139.41 153.38
  A 0.26 0.26 0.0 0 0 139.07 153.52
  L 139.01 153.66
  A 1.95 1.77 -67.6 0 0 139.90 156.14
  L 140.02 156.18
  A 1.95 1.77 -67.6 0 0 142.40 155.06
  L 142.45 154.92
  A 0.26 0.26 0.0 0 0 142.31 154.58
  Z"
/>
<path fill="#60366e" d="
  M 214.22 144.63
  Q 214.54 140.25 215.98 138.15
  Q 223.70 133.67 230.71 131.03
  Q 233.33 130.04 231.53 132.19
  C 231.11 132.70 230.63 133.39 230.01 133.81
  Q 222.28 139.09 214.22 144.63
  Z"
/>
<path fill="#e9baf4" d="
  M 255.94 143.17
  L 260.01 143.12
  C 270.22 145.68 275.85 157.34 268.92 166.14
  C 264.34 171.95 254.60 173.59 248.24 168.90
  C 243.28 165.24 240.89 154.96 244.54 149.96
  C 247.61 145.78 250.16 143.07 255.94 143.17
  Z
  M 265.12 147.11
  A 0.31 0.31 0.0 0 0 265.26 146.53
  L 262.40 145.00
  A 0.31 0.31 0.0 0 0 262.25 144.96
  L 254.28 145.26
  A 0.31 0.31 0.0 0 0 254.12 145.83
  L 256.32 147.28
  A 0.31 0.31 0.0 0 0 256.50 147.33
  L 265.12 147.11
  Z
  M 264.42 150.03
  Q 259.39 147.52 254.49 148.23
  C 247.15 149.28 244.24 158.81 250.02 163.75
  C 252.20 165.61 254.86 166.62 257.75 166.02
  C 260.30 165.49 262.52 165.74 264.35 163.76
  Q 267.30 160.59 267.45 155.36
  Q 268.86 155.49 268.95 154.44
  Q 268.98 154.17 268.62 153.38
  Q 268.25 152.56 268.87 151.88
  Q 269.22 151.50 268.96 151.05
  Q 268.81 150.79 268.49 150.68
  Q 267.99 150.51 267.90 149.99
  Q 267.65 148.41 266.15 147.82
  A 0.62 0.61 24.0 0 0 265.38 148.11
  L 264.42 150.03
  Z"
/>
<path fill="#2b2231" d="
  M 264.42 150.03
  L 267.45 155.36
  Q 267.30 160.59 264.35 163.76
  C 262.52 165.74 260.30 165.49 257.75 166.02
  C 254.86 166.62 252.20 165.61 250.02 163.75
  C 244.24 158.81 247.15 149.28 254.49 148.23
  Q 259.39 147.52 264.42 150.03
  Z"
/>
<path fill="#9c5fc2" d="
  M 288.27 152.36
  Q 289.42 154.37 288.84 156.02
  Q 286.98 161.30 285.24 166.70
  L 272.52 164.70
  A 0.80 0.79 -71.3 0 1 271.95 163.53
  Q 275.55 156.87 272.00 150.24
  A 0.87 0.87 0.0 0 1 272.96 148.98
  L 288.27 152.36
  Z"
/>
<path fill="#9c5fc2" d="
  M 225.86 167.15
  L 224.77 152.76
  L 235.70 150.21
  Q 238.00 149.68 236.68 151.63
  Q 233.10 156.93 233.87 163.36
  A 0.62 0.62 0.0 0 0 234.40 163.91
  L 234.73 163.96
  A 0.40 0.40 0.0 0 0 235.19 163.53
  Q 234.62 157.36 237.51 151.69
  C 238.48 149.80 239.76 149.76 241.68 149.46
  A 0.64 0.64 0.0 0 1 242.41 150.23
  Q 240.94 157.03 242.83 163.70
  A 0.33 0.32 -12.7 0 1 242.57 164.11
  L 225.86 167.15
  Z"
/>
<path fill="#60366e" d="
  M 288.27 152.36
  Q 297.86 153.41 307.42 157.25
  Q 309.63 157.96 312.43 159.06
  C 316.47 160.63 320.29 173.54 321.55 177.56
  C 321.89 178.65 321.52 179.39 320.82 180.16
  Q 319.58 179.59 318.26 179.10
  C 315.76 178.16 313.73 175.83 312.03 174.88
  C 308.01 172.63 299.32 169.66 293.25 168.41
  Q 289.08 167.54 285.24 166.70
  Q 286.98 161.30 288.84 156.02
  Q 289.42 154.37 288.27 152.36
  Z"
/>
<path fill="#60366e" d="
  M 224.77 152.76
  L 225.86 167.15
  C 214.67 170.42 204.97 173.72 196.08 181.56
  Q 195.70 181.90 195.20 181.82
  L 193.89 181.61
  Q 196.22 173.86 198.80 166.08
  C 199.74 163.24 201.13 161.69 203.89 160.18
  Q 207.04 158.46 209.91 156.91
  L 224.77 152.76
  Z"
/>
<path fill="#5c5573" d="
  M 358.13 201.87
  Q 351.11 199.79 330.24 197.34
  Q 305.03 194.38 279.76 191.84
  Q 277.12 191.58 275.07 190.76
  Q 273.86 190.28 275.16 190.32
  C 282.72 190.51 290.17 189.76 297.75 190.12
  C 315.19 190.96 329.84 193.52 345.91 196.30
  Q 352.13 197.38 357.21 199.34
  C 363.80 201.89 371.16 204.73 377.15 208.52
  Q 377.31 208.61 377.21 208.77
  L 377.20 208.77
  Q 377.10 208.92 376.95 208.81
  Q 375.84 207.94 373.51 207.10
  Q 363.03 203.33 358.13 201.87
  Z"
/>
<path fill="#5c5573" d="
  M 121.55 221.02
  C 128.53 214.08 139.98 209.27 148.80 205.42
  Q 152.93 206.27 158.02 204.68
  C 170.80 200.69 184.16 198.15 198.43 196.48
  Q 224.76 193.38 251.25 192.13
  Q 252.14 192.09 252.49 192.14
  Q 253.90 192.33 252.46 192.81
  C 240.30 196.89 226.53 197.84 213.48 199.30
  C 193.79 201.49 179.33 203.80 160.87 208.11
  Q 160.25 208.25 159.92 208.43
  Q 159.49 208.66 159.01 208.70
  C 154.19 209.10 150.03 211.22 145.26 211.79
  Q 144.28 211.91 141.70 213.23
  C 137.88 215.19 134.08 214.99 130.23 217.30
  Q 126.16 219.74 121.55 221.02
  Z"
/>
<path fill="#60366e" d="
  M 320.56 230.25
  C 318.66 227.93 316.05 225.75 314.34 223.76
  Q 309.82 218.50 304.78 213.72
  C 302.57 211.62 301.33 209.28 300.60 206.55
  Q 300.13 204.83 301.64 205.78
  Q 311.04 211.71 320.17 218.83
  C 327.07 224.23 331.41 233.10 335.79 240.75
  C 336.80 242.52 339.34 246.98 339.17 248.96
  A 0.23 0.23 0.0 0 1 338.77 249.09
  Q 331.38 240.46 321.34 235.87
  C 315.77 233.32 309.69 230.12 305.72 225.58
  Q 303.96 223.56 301.88 221.84
  A 1.34 1.31 15.6 0 1 301.41 221.03
  L 300.54 216.17
  Q 300.44 215.62 300.88 215.29
  C 302.85 213.82 304.47 214.87 305.94 216.54
  Q 310.96 222.26 316.17 227.83
  Q 317.89 229.68 320.19 230.73
  A 0.31 0.31 0.0 0 0 320.56 230.25
  Z"
/>
<path fill="#60366e" d="
  M 214.69 211.96
  C 213.05 214.52 213.94 218.04 212.72 220.90
  C 210.89 225.21 204.08 230.02 200.34 232.77
  Q 198.43 234.18 190.10 239.00
  Q 183.27 242.95 177.32 248.14
  Q 176.62 248.76 176.84 247.85
  Q 177.11 246.76 178.07 245.35
  Q 182.35 239.05 185.89 232.28
  C 191.82 220.94 202.25 215.20 213.32 210.38
  Q 216.64 208.94 214.69 211.96
  Z"
/>
<path fill="#5c5573" d="
  M 273.02 219.76
  Q 272.33 220.30 271.06 219.94
  Q 271.12 219.51 271.56 219.35
  Q 272.81 218.87 273.02 219.76
  Z"
/>
<path fill="#9c5fc2" d="
  M 245.52 221.14
  Q 246.03 221.40 246.08 221.33
  C 247.57 222.89 250.06 223.20 251.03 225.74
  Q 251.74 227.60 251.75 234.23
  Q 251.75 234.41 251.57 234.41
  L 251.09 234.41
  Q 250.91 234.41 250.90 234.23
  L 250.77 230.51
  A 0.64 0.64 0.0 0 0 249.97 229.92
  Q 248.86 230.22 247.92 231.07
  Q 247.24 230.83 246.94 230.04
  Q 245.02 225.07 242.70 221.71
  L 245.52 221.14
  Z"
/>
<path fill="#9c5fc2" d="
  M 272.96 221.99
  Q 271.73 223.37 270.65 224.67
  C 268.91 226.75 268.59 229.30 268.01 231.83
  A 0.66 0.66 0.0 0 0 268.78 232.63
  L 274.72 231.55
  Q 275.55 232.24 275.73 233.46
  Q 275.28 233.81 274.72 233.75
  C 272.83 232.08 270.00 233.09 267.77 233.54
  A 1.00 0.98 -84.5 0 0 267.03 234.16
  L 266.20 236.26
  A 0.45 0.45 0.0 0 1 265.33 236.17
  C 264.30 230.28 262.58 219.45 272.96 221.99
  Z"
/>
<path fill="#5c5573" d="
  M 283.97 227.77
  Q 281.92 229.30 278.82 228.96
  Q 278.82 228.27 280.00 228.11
  Q 280.90 227.99 282.50 227.44
  Q 283.34 227.15 283.97 227.77
  Z"
/>
<path fill="#9c5fc2" d="
  M 240.99 230.41
  L 245.30 232.85
  Q 243.61 233.20 242.07 233.00
  Q 241.61 232.94 241.56 232.47
  Q 241.43 231.22 240.99 230.41
  Z"
/>
<path fill="#9c5fc2" d="
  M 237.02 237.67
  C 234.89 238.04 233.15 238.84 230.96 238.65
  Q 229.00 238.48 226.95 238.39
  Q 228.96 237.11 231.37 237.46
  C 233.53 237.76 235.03 237.50 237.02 237.67
  Z"
/>
<path fill="#60366e" d="
  M 354.95 293.34
  Q 357.77 309.41 345.97 318.74
  A 0.78 0.78 0.0 0 0 346.00 319.98
  L 350.50 323.24
  Q 352.54 324.71 350.10 324.09
  Q 346.16 323.08 342.55 321.31
  A 0.46 0.46 0.0 0 0 341.89 321.70
  Q 341.86 322.42 342.53 322.97
  C 347.65 327.18 353.73 328.50 358.87 332.41
  Q 368.29 339.58 366.80 351.47
  Q 366.67 352.46 367.44 351.82
  C 373.23 347.04 380.29 335.69 375.85 327.97
  A 0.12 0.11 63.4 0 1 375.90 327.81
  L 376.12 327.68
  Q 376.44 327.50 376.65 327.80
  C 383.18 337.12 383.69 349.71 378.72 359.65
  C 376.75 363.59 372.73 367.44 369.91 371.46
  Q 369.22 372.43 369.96 373.75
  Q 359.55 380.85 346.37 382.65
  Q 345.50 382.77 346.04 382.08
  Q 346.41 381.61 346.91 381.19
  A 1.54 1.41 87.6 0 0 347.23 380.81
  C 350.61 375.12 355.42 369.61 354.38 362.33
  Q 354.30 361.79 353.82 361.54
  L 351.65 360.41
  Q 351.21 360.18 351.09 360.65
  Q 350.92 361.32 350.38 361.57
  C 351.30 355.97 352.48 350.28 348.43 345.56
  Q 343.51 339.82 336.76 336.28
  Q 336.26 336.02 335.89 336.45
  C 335.05 337.43 334.77 338.06 333.58 338.64
  Q 324.54 343.08 315.50 347.50
  Q 311.01 349.69 306.36 355.12
  C 306.18 353.44 304.67 353.41 303.77 352.77
  C 299.08 349.43 293.86 345.95 290.37 341.71
  Q 279.15 328.05 281.77 309.49
  Q 282.49 304.37 287.48 293.44
  Q 287.69 292.99 288.16 293.14
  Q 289.08 293.42 289.86 292.55
  Q 290.13 292.25 290.54 292.25
  Q 293.20 292.19 295.85 292.43
  Q 297.17 292.55 299.08 292.13
  Q 300.92 291.74 302.48 292.27
  Q 303.54 292.63 302.99 293.61
  Q 300.39 298.30 298.87 303.06
  Q 295.27 314.38 295.89 326.16
  Q 296.03 328.90 296.63 331.79
  C 297.61 336.47 299.64 339.50 300.77 343.58
  A 1.29 1.28 48.7 0 1 300.72 344.42
  Q 300.43 345.12 300.42 345.43
  Q 300.35 347.51 301.77 345.99
  C 303.17 344.50 302.69 342.44 301.61 340.70
  C 294.62 329.49 297.90 312.23 302.85 300.60
  C 305.10 295.33 310.20 287.55 312.84 280.27
  C 315.63 272.57 316.48 264.10 317.24 255.50
  Q 317.35 254.34 318.41 254.01
  Q 318.92 253.85 318.97 254.37
  Q 320.91 273.62 313.21 291.26
  Q 313.12 291.47 313.34 291.55
  L 313.62 291.65
  A 0.49 0.48 21.4 0 0 314.23 291.39
  Q 318.43 281.67 319.27 278.76
  Q 323.14 265.38 321.39 251.53
  Q 320.56 244.99 319.28 238.41
  A 0.93 0.92 -23.9 0 1 319.64 237.49
  Q 319.79 237.38 320.22 237.62
  C 323.62 239.56 327.31 241.29 330.25 243.58
  Q 340.39 251.49 346.74 262.81
  Q 347.20 263.64 347.12 264.42
  A 0.59 0.59 0.0 0 1 346.20 264.84
  L 343.18 262.82
  Q 339.85 260.58 341.32 264.32
  C 343.05 268.72 345.52 273.68 348.78 277.49
  C 351.60 280.81 352.62 286.30 354.38 290.32
  Q 355.02 291.80 354.95 293.34
  Z
  M 322.19 298.19
  Q 321.74 299.61 320.59 300.58
  C 317.51 303.18 313.89 305.61 311.79 309.26
  C 306.41 318.61 308.19 333.23 316.05 340.89
  Q 316.47 341.30 316.75 340.78
  L 316.94 340.43
  Q 317.03 340.25 316.90 340.09
  C 307.60 328.64 308.22 311.60 320.29 302.32
  C 321.05 301.74 322.15 300.07 322.53 299.22
  C 326.41 290.63 329.61 283.76 330.08 273.50
  Q 330.62 261.85 328.15 250.45
  Q 328.14 250.37 328.05 250.38
  L 327.80 250.41
  A 0.28 0.27 85.6 0 0 327.56 250.70
  C 327.87 256.65 328.92 262.93 328.70 268.46
  C 328.26 279.50 325.34 288.36 322.19 298.19
  Z
  M 320.29 323.27
  C 321.25 327.47 322.15 330.99 325.41 333.41
  A 0.17 0.17 0.0 0 0 325.66 333.19
  Q 321.97 326.81 322.11 321.50
  Q 322.21 317.32 324.65 315.15
  Q 330.99 309.50 334.55 305.05
  C 336.03 303.19 337.32 302.02 339.12 300.81
  A 0.97 0.96 -30.8 0 1 340.52 301.16
  Q 341.79 303.60 341.31 306.39
  Q 341.13 307.49 341.76 306.57
  C 343.94 303.38 343.59 297.57 343.92 293.78
  C 344.58 286.01 342.09 280.83 340.56 273.91
  Q 339.85 270.67 339.86 273.99
  C 339.89 280.47 340.75 288.44 337.33 294.57
  Q 332.23 303.73 324.56 310.26
  Q 318.49 315.44 320.29 323.27
  Z"
/>
<path fill="#9c5fc2" d="
  M 277.92 237.65
  Q 280.55 237.41 282.58 238.23
  Q 280.46 238.94 278.28 238.89
  Q 277.77 238.87 277.76 238.36
  Q 277.75 238.06 277.92 237.65
  Z"
/>
<path fill="#60366e" d="
  M 207.72 354.68
  Q 201.09 346.28 190.27 342.73
  Q 188.41 342.12 187.23 340.70
  Q 186.92 340.34 186.51 340.11
  Q 185.03 339.30 184.81 337.59
  Q 184.75 337.07 184.24 336.90
  C 182.15 336.20 180.06 337.33 178.58 337.59
  Q 167.32 339.54 165.22 351.27
  Q 164.55 355.05 165.74 361.17
  Q 164.46 361.01 163.78 363.38
  Q 163.60 364.04 162.95 363.80
  Q 162.00 363.44 161.24 362.83
  A 0.95 0.82 31.2 0 0 159.82 363.07
  Q 159.74 363.30 159.91 363.87
  Q 162.73 373.26 167.65 381.55
  A 0.32 0.31 80.6 0 1 167.32 382.02
  C 159.54 380.43 152.91 379.53 146.75 373.32
  Q 148.16 374.05 148.93 374.09
  A 0.65 0.65 0.0 0 0 149.50 373.07
  Q 147.97 370.88 146.08 370.11
  C 142.53 365.95 138.05 361.85 135.81 357.43
  C 132.33 350.55 133.79 333.68 139.41 328.04
  Q 141.71 325.73 140.11 328.57
  C 136.03 335.80 143.71 348.15 149.48 352.51
  A 0.41 0.41 0.0 0 0 150.11 352.06
  C 147.73 344.73 151.94 335.33 157.84 330.74
  C 162.39 327.21 167.93 327.29 172.37 323.05
  Q 172.80 322.64 172.52 322.11
  L 172.37 321.82
  A 0.32 0.31 55.1 0 0 171.89 321.73
  Q 170.10 323.30 167.66 322.96
  A 0.43 0.42 -52.9 0 1 167.55 322.15
  L 170.79 320.74
  Q 171.60 320.39 170.92 319.83
  C 162.14 312.62 158.17 301.84 161.21 290.47
  Q 161.52 286.74 162.53 282.52
  Q 163.09 280.18 162.10 278.12
  Q 161.88 277.67 161.99 277.19
  Q 162.34 275.52 163.60 274.58
  C 169.22 270.37 170.12 265.04 174.38 259.66
  A 0.53 0.53 0.0 0 0 174.30 258.91
  L 174.08 258.73
  Q 173.87 258.56 173.70 258.77
  Q 171.17 262.13 167.69 264.58
  Q 167.52 264.70 167.33 264.72
  Q 167.01 264.74 166.92 264.72
  A 0.57 0.57 0.0 0 1 166.60 263.87
  Q 172.62 254.41 181.26 247.46
  C 185.13 244.34 190.28 241.45 194.86 238.60
  Q 195.34 238.29 195.63 238.33
  A 0.68 0.68 0.0 0 1 196.20 239.18
  C 191.70 255.37 190.45 272.68 197.52 288.38
  A 0.23 0.21 -8.2 0 0 197.71 288.51
  L 198.14 288.52
  Q 198.45 288.54 198.37 288.24
  C 195.20 277.27 193.69 266.20 195.70 254.85
  Q 196.35 251.15 197.64 248.79
  Q 198.52 247.20 198.38 249.01
  Q 197.87 255.67 198.30 262.30
  C 198.78 269.72 201.10 277.65 203.66 284.53
  C 204.97 288.08 207.80 291.61 209.34 294.51
  C 211.79 299.14 214.58 303.92 215.98 308.75
  C 218.76 318.39 219.68 329.29 215.28 338.57
  A 1.80 1.77 -32.4 0 0 215.12 339.26
  L 215.12 340.38
  Q 215.11 340.68 215.39 340.59
  Q 215.54 340.54 215.67 340.46
  Q 215.76 340.40 215.81 340.28
  C 217.41 336.84 218.90 333.56 219.35 329.73
  C 220.76 317.95 219.53 307.84 213.86 297.43
  Q 209.46 289.36 205.22 281.34
  Q 204.97 280.87 205.50 280.97
  Q 205.86 281.03 205.94 281.39
  Q 206.04 281.85 206.52 281.86
  Q 207.44 281.86 208.14 282.49
  A 1.78 1.76 71.9 0 0 208.92 282.89
  C 210.82 283.31 213.39 284.39 215.25 284.27
  Q 216.55 284.19 220.03 284.59
  Q 220.51 284.64 220.89 284.95
  Q 224.03 287.56 225.82 291.28
  C 227.87 295.54 229.97 300.00 231.13 304.39
  C 235.28 320.15 231.48 335.29 219.96 346.69
  Q 214.44 352.16 207.72 354.68
  Z
  M 201.85 338.43
  Q 207.89 328.99 207.79 319.00
  C 207.73 312.52 205.51 308.30 201.50 303.21
  Q 201.20 302.83 201.18 302.34
  Q 201.16 301.98 201.06 301.68
  Q 200.71 300.70 200.44 301.71
  L 200.28 302.28
  Q 200.09 302.97 199.41 302.74
  C 187.80 298.78 186.08 275.60 185.14 265.90
  Q 185.13 265.81 185.04 265.81
  L 184.73 265.82
  Q 184.47 265.82 184.45 266.08
  C 183.51 278.78 186.49 294.46 197.25 302.77
  C 208.81 311.68 207.73 325.86 200.93 337.40
  Q 200.60 337.96 201.10 338.36
  L 201.30 338.52
  Q 201.62 338.77 201.85 338.43
  Z
  M 186.29 337.71
  L 186.48 337.90
  A 0.36 0.35 44.4 0 0 186.99 337.90
  Q 188.01 336.85 189.14 335.87
  Q 196.53 329.48 196.09 319.92
  C 195.98 317.51 195.03 314.42 193.47 312.78
  C 186.53 305.54 179.63 300.08 177.35 289.66
  Q 175.82 282.63 175.36 269.45
  Q 175.35 269.38 175.27 269.37
  Q 175.23 269.37 175.19 269.37
  Q 175.04 269.35 175.01 269.49
  Q 173.72 274.66 172.31 279.78
  C 170.88 284.99 172.30 291.70 174.31 296.57
  C 176.80 302.58 182.56 308.01 187.43 312.73
  Q 192.27 317.43 193.25 319.90
  C 196.02 326.87 191.99 332.20 186.30 337.58
  Q 186.23 337.64 186.29 337.71
  Z"
/>
<path fill="#2b2231" d="
  M 322.19 298.19
  C 325.34 288.36 328.26 279.50 328.70 268.46
  C 328.92 262.93 327.87 256.65 327.56 250.70
  A 0.28 0.27 85.6 0 1 327.80 250.41
  L 328.05 250.38
  Q 328.14 250.37 328.15 250.45
  Q 330.62 261.85 330.08 273.50
  C 329.61 283.76 326.41 290.63 322.53 299.22
  C 322.15 300.07 321.05 301.74 320.29 302.32
  C 308.22 311.60 307.60 328.64 316.90 340.09
  Q 317.03 340.25 316.94 340.43
  L 316.75 340.78
  Q 316.47 341.30 316.05 340.89
  C 308.19 333.23 306.41 318.61 311.79 309.26
  C 313.89 305.61 317.51 303.18 320.59 300.58
  Q 321.74 299.61 322.19 298.19
  Z"
/>
<path fill="#2b2231" d="
  M 255.32 257.12
  Q 254.56 258.31 252.80 258.66
  C 249.86 258.47 246.99 256.65 249.10 253.60
  Q 249.35 253.23 249.48 253.66
  Q 249.60 254.07 249.83 254.40
  C 250.10 254.79 254.35 256.48 255.32 257.12
  Z"
/>
<path fill="#2b2231" d="
  M 259.16 260.48
  Q 258.62 259.11 259.01 257.10
  Q 262.49 256.56 264.85 254.55
  Q 265.61 253.91 266.14 254.75
  Q 267.59 257.06 265.58 258.47
  Q 265.13 258.78 264.61 258.64
  Q 261.45 257.76 259.16 260.48
  Z"
/>
<path fill="#9c5fc2" d="
  M 255.32 257.12
  L 259.01 257.10
  Q 258.62 259.11 259.16 260.48
  Q 258.49 261.94 256.43 260.76
  Q 254.63 259.71 252.80 258.66
  Q 254.56 258.31 255.32 257.12
  Z"
/>
<path fill="#2b2231" d="
  M 201.85 338.43
  Q 201.62 338.77 201.30 338.52
  L 201.10 338.36
  Q 200.60 337.96 200.93 337.40
  C 207.73 325.86 208.81 311.68 197.25 302.77
  C 186.49 294.46 183.51 278.78 184.45 266.08
  Q 184.47 265.82 184.73 265.82
  L 185.04 265.81
  Q 185.13 265.81 185.14 265.90
  C 186.08 275.60 187.80 298.78 199.41 302.74
  Q 200.09 302.97 200.28 302.28
  L 200.44 301.71
  Q 200.71 300.70 201.06 301.68
  Q 201.16 301.98 201.18 302.34
  Q 201.20 302.83 201.50 303.21
  C 205.51 308.30 207.73 312.52 207.79 319.00
  Q 207.89 328.99 201.85 338.43
  Z"
/>
<path fill="#2b2231" d="
  M 267.44 274.52
  L 249.42 274.70
  Q 245.61 272.29 241.22 271.49
  Q 240.04 271.27 240.03 270.25
  A 0.55 0.55 0.0 0 1 240.84 269.76
  C 244.55 271.64 248.29 269.57 251.91 268.73
  C 255.18 267.96 255.98 270.81 259.46 268.90
  C 261.64 267.70 265.47 269.53 267.65 270.28
  C 269.75 271.01 271.15 270.42 273.11 269.72
  Q 273.81 269.47 274.51 269.68
  L 274.86 269.79
  Q 275.81 270.08 274.93 270.55
  L 267.44 274.52
  Z"
/>
<path fill="#2b2231" d="
  M 186.30 337.58
  C 191.99 332.20 196.02 326.87 193.25 319.90
  Q 192.27 317.43 187.43 312.73
  C 182.56 308.01 176.80 302.58 174.31 296.57
  C 172.30 291.70 170.88 284.99 172.31 279.78
  Q 173.72 274.66 175.01 269.49
  Q 175.04 269.35 175.19 269.37
  Q 175.23 269.37 175.27 269.37
  Q 175.35 269.38 175.36 269.45
  Q 175.82 282.63 177.35 289.66
  C 179.63 300.08 186.53 305.54 193.47 312.78
  C 195.03 314.42 195.98 317.51 196.09 319.92
  Q 196.53 329.48 189.14 335.87
  Q 188.01 336.85 186.99 337.90
  A 0.36 0.35 44.4 0 1 186.48 337.90
  L 186.29 337.71
  Q 186.23 337.64 186.30 337.58
  Z"
/>
<path fill="#2b2231" d="
  M 320.29 323.27
  Q 318.49 315.44 324.56 310.26
  Q 332.23 303.73 337.33 294.57
  C 340.75 288.44 339.89 280.47 339.86 273.99
  Q 339.85 270.67 340.56 273.91
  C 342.09 280.83 344.58 286.01 343.92 293.78
  C 343.59 297.57 343.94 303.38 341.76 306.57
  Q 341.13 307.49 341.31 306.39
  Q 341.79 303.60 340.52 301.16
  A 0.97 0.96 -30.8 0 0 339.12 300.81
  C 337.32 302.02 336.03 303.19 334.55 305.05
  Q 330.99 309.50 324.65 315.15
  Q 322.21 317.32 322.11 321.50
  Q 321.97 326.81 325.66 333.19
  A 0.17 0.17 0.0 0 1 325.41 333.41
  C 322.15 330.99 321.25 327.47 320.29 323.27
  Z"
/>
<path fill="#b037b5" d="
  M 267.44 274.52
  Q 266.67 275.26 266.13 275.49
  Q 265.77 275.80 265.22 275.44
  C 259.17 276.12 254.77 276.56 249.42 274.70
  L 267.44 274.52
  Z"
/>
<path fill="#2b2231" d="
  M 265.22 275.44
  Q 265.77 275.80 266.13 275.49
  C 263.91 281.63 254.75 280.54 250.34 278.18
  Q 249.25 277.60 249.04 276.43
  A 0.44 0.44 0.0 0 1 249.58 275.92
  C 250.56 276.16 251.18 276.65 252.17 276.75
  C 255.79 277.12 261.33 277.82 264.75 276.45
  Q 265.65 276.08 265.22 275.44
  Z"
/>
<path fill="#9c5fc2" d="
  M 279.00 289.73
  Q 278.69 289.53 278.52 289.26
  Q 278.62 288.20 279.24 287.62
  Q 279.71 287.18 279.89 287.80
  Q 280.18 288.80 279.00 289.73
  Z"
/>
<path fill="#5c5573" d="
  M 242.66 295.15
  Q 241.20 294.61 240.60 292.88
  Q 242.46 292.94 242.66 295.15
  Z"
/>
<path fill="#60366e" d="
  M 391.61 316.65
  Q 391.60 316.68 391.59 316.65
  C 390.38 313.35 388.35 312.32 385.89 310.19
  Q 385.49 309.85 385.89 309.51
  C 388.06 307.69 390.23 307.03 391.46 304.21
  A 0.47 0.47 0.0 0 1 392.32 304.20
  Q 393.86 307.67 397.50 308.82
  Q 398.05 308.99 397.67 309.42
  Q 396.45 310.77 395.13 311.69
  Q 393.01 313.16 391.61 316.65
  Z"
/>
<path fill="#60366e" d="
  M 125.49 307.50
  A 0.43 0.42 41.6 0 1 126.26 307.46
  Q 127.85 310.43 130.93 311.86
  A 0.54 0.54 0.0 0 1 130.98 312.81
  Q 127.85 314.61 125.71 317.51
  Q 125.28 318.09 124.92 317.47
  Q 123.33 314.75 120.53 313.33
  Q 118.79 312.45 120.66 311.92
  Q 124.16 310.91 125.49 307.50
  Z"
/>
<path fill="#2b2231" d="
  M 264.83 343.84
  Q 267.21 340.05 270.21 336.72
  A 0.60 0.56 15.3 0 1 270.57 336.53
  L 280.28 335.37
  Q 280.37 335.36 280.38 335.45
  L 280.43 335.71
  A 0.53 0.52 -11.0 0 1 280.01 336.32
  Q 277.22 336.86 274.51 337.53
  C 270.31 338.58 268.21 341.71 265.29 344.23
  Q 263.77 345.53 264.83 343.84
  Z"
/>
<path fill="#2b2231" d="
  M 246.46 340.05
  C 243.91 337.35 239.39 336.81 235.91 336.67
  Q 235.29 336.64 234.96 335.93
  Q 234.78 335.54 235.21 335.57
  Q 239.29 335.83 243.26 336.36
  C 247.07 336.88 248.86 340.97 250.58 343.69
  Q 251.95 345.84 250.19 343.99
  Q 248.62 342.33 246.46 340.05
  Z"
/>
<path fill="#b037b5" d="
  M 350.38 361.57
  Q 350.40 361.92 349.20 363.18
  L 346.51 359.11
  A 0.49 0.49 0.0 0 0 345.66 359.16
  Q 345.30 359.91 344.60 360.35
  Q 343.78 360.87 343.75 360.87
  Q 343.43 360.89 343.39 361.19
  Q 343.33 361.61 342.97 361.86
  Q 341.62 362.79 340.55 363.97
  Q 337.99 366.77 338.08 362.98
  L 338.23 356.47
  Q 338.26 355.36 337.54 356.20
  Q 332.37 362.24 325.33 366.63
  C 321.15 369.23 317.65 372.59 317.86 378.01
  Q 317.83 384.44 322.06 390.22
  C 326.49 396.29 336.67 398.78 343.14 396.05
  Q 346.34 394.70 343.55 396.76
  Q 341.22 398.49 337.95 400.23
  C 330.12 404.40 316.12 400.96 309.47 397.60
  Q 305.87 395.77 301.40 391.85
  C 287.64 379.80 294.84 364.72 306.36 355.12
  Q 311.01 349.69 315.50 347.50
  Q 324.54 343.08 333.58 338.64
  C 334.77 338.06 335.05 337.43 335.89 336.45
  Q 336.26 336.02 336.76 336.28
  Q 343.51 339.82 348.43 345.56
  C 352.48 350.28 351.30 355.97 350.38 361.57
  Z
  M 300.10 374.78
  Q 300.29 373.33 300.32 371.79
  Q 300.33 371.29 299.93 371.59
  Q 299.51 371.90 299.39 372.51
  C 298.91 374.93 298.02 377.63 298.04 379.86
  Q 298.09 384.83 301.29 388.86
  A 0.49 0.49 0.0 0 0 302.02 388.90
  L 302.25 388.67
  A 0.33 0.33 0.0 0 0 302.27 388.23
  C 299.41 384.74 299.57 378.98 300.10 374.78
  Z"
/>
<path fill="#b037b5" d="
  M 207.72 354.68
  C 214.79 363.54 223.36 372.76 217.98 385.25
  C 215.58 390.82 209.78 395.01 204.23 397.93
  C 194.19 403.21 180.68 405.19 172.28 395.63
  Q 170.98 394.15 172.78 394.97
  C 184.20 400.17 197.93 394.19 197.78 380.51
  C 197.74 376.72 195.87 377.45 193.46 376.32
  Q 186.94 373.24 181.52 370.78
  Q 178.84 369.56 180.63 371.89
  Q 183.88 376.12 184.41 381.48
  A 0.56 0.56 0.0 0 1 183.71 382.08
  C 176.18 380.15 175.17 375.31 170.96 369.76
  Q 167.91 365.74 165.74 361.17
  Q 164.55 355.05 165.22 351.27
  Q 167.32 339.54 178.58 337.59
  C 180.06 337.33 182.15 336.20 184.24 336.90
  Q 184.75 337.07 184.81 337.59
  Q 185.03 339.30 186.51 340.11
  Q 186.92 340.34 187.23 340.70
  Q 188.41 342.12 190.27 342.73
  Q 201.09 346.28 207.72 354.68
  Z
  M 213.91 386.96
  A 0.50 0.50 0.0 0 0 214.14 387.55
  Q 214.69 387.86 215.13 387.08
  C 217.88 382.28 216.84 378.15 215.68 373.10
  Q 215.63 372.89 215.42 372.93
  L 215.41 372.93
  Q 215.18 372.97 215.22 373.25
  Q 216.14 380.28 213.91 386.96
  Z
  M 207.49 390.79
  L 208.61 390.98
  A 0.18 0.18 0.0 0 0 208.82 390.83
  L 209.00 389.71
  A 10.35 0.63 -80.8 0 0 210.03 379.39
  L 209.79 379.36
  A 10.35 0.63 -80.8 0 0 207.52 389.47
  L 207.34 390.59
  A 0.18 0.18 0.0 0 0 207.49 390.79
  Z"
/>
<path fill="#60366e" d="
  M 349.20 363.18
  Q 349.03 363.86 347.94 364.22
  Q 347.25 364.44 347.35 363.73
  Q 347.55 362.29 347.16 360.88
  Q 347.08 360.62 346.81 360.62
  L 346.52 360.62
  Q 345.74 360.63 345.82 361.41
  Q 346.13 364.33 345.71 365.21
  Q 341.29 374.57 332.84 381.51
  A 1.67 1.64 -59.0 0 1 331.49 381.86
  C 327.67 381.20 332.19 373.39 333.13 371.73
  Q 333.40 371.26 332.90 371.48
  L 317.86 378.01
  C 317.65 372.59 321.15 369.23 325.33 366.63
  Q 332.37 362.24 337.54 356.20
  Q 338.26 355.36 338.23 356.47
  L 338.08 362.98
  Q 337.99 366.77 340.55 363.97
  Q 341.62 362.79 342.97 361.86
  Q 343.33 361.61 343.39 361.19
  Q 343.43 360.89 343.75 360.87
  Q 343.78 360.87 344.60 360.35
  Q 345.30 359.91 345.66 359.16
  A 0.49 0.49 0.0 0 1 346.51 359.11
  L 349.20 363.18
  Z"
/>
<path fill="#e9baf4" d="
  M 146.08 370.11
  Q 147.97 370.88 149.50 373.07
  A 0.65 0.65 0.0 0 1 148.93 374.09
  Q 148.16 374.05 146.75 373.32
  Q 146.01 372.80 146.17 372.21
  L 146.08 370.11
  Z"
/>
<path fill="#2b2231" d="
  M 300.10 374.78
  C 299.57 378.98 299.41 384.74 302.27 388.23
  A 0.33 0.33 0.0 0 1 302.25 388.67
  L 302.02 388.90
  A 0.49 0.49 0.0 0 1 301.29 388.86
  Q 298.09 384.83 298.04 379.86
  C 298.02 377.63 298.91 374.93 299.39 372.51
  Q 299.51 371.90 299.93 371.59
  Q 300.33 371.29 300.32 371.79
  Q 300.29 373.33 300.10 374.78
  Z"
/>
<path fill="#60366e" d="
  M 213.91 386.96
  Q 216.14 380.28 215.22 373.25
  Q 215.18 372.97 215.41 372.93
  L 215.42 372.93
  Q 215.63 372.89 215.68 373.10
  C 216.84 378.15 217.88 382.28 215.13 387.08
  Q 214.69 387.86 214.14 387.55
  A 0.50 0.50 0.0 0 1 213.91 386.96
  Z"
/>
<path fill="#60366e" d="
  M 207.49 390.79
  A 0.18 0.18 0.0 0 1 207.34 390.59
  L 207.52 389.47
  A 10.35 0.63 -80.8 0 1 209.79 379.36
  L 210.03 379.39
  A 10.35 0.63 -80.8 0 1 209.00 389.71
  L 208.82 390.83
  A 0.18 0.18 0.0 0 1 208.61 390.98
  L 207.49 390.79
  Z"
/>
<path fill="#60366e" d="
  M 258.12 401.97
  L 257.75 409.10
  Q 257.66 410.71 257.06 409.22
  Q 256.54 407.92 256.82 406.37
  Q 257.85 404.55 258.12 401.97
  Z"
/>
</svg>
